<svg xmlns="http://www.w3.org/2000/svg" viewBox="0 0 64 64" width="64" height="64" role="img" aria-label="True911"><title>True911</title><defs><linearGradient id="br-g" gradientUnits="userSpaceOnUse" x1="52" y1="4" x2="12" y2="60"><stop offset="0" stop-color="#60A9FF"/><stop offset="1" stop-color="#2D8CFF"/></linearGradient><mask id="br-m" maskUnits="userSpaceOnUse" x="0" y="0" width="64" height="64"><rect width="64" height="64" fill="#fff"/><g fill="#000"><rect x="30.45" y="1" width="3.1" height="9.6" transform="rotate(0 32 28.2)"/><rect x="31.15" y="1" width="1.7" height="9.6" transform="rotate(-140.5 32 28.2)"/><rect x="31.15" y="1" width="1.7" height="9.6" transform="rotate(129 32 28.2)"/><rect x="30.35" y="51.6" width="3.3" height="11.8"/></g></mask></defs><path fill="url(#br-g)" fill-rule="evenodd" mask="url(#br-m)" d="M32 62L48.55 48.51A26.2 26.2 0 1 0 15.45 48.51ZM32 52.2L43.75 42.62A18.6 18.6 0 1 0 20.25 42.62Z"/><path fill="#FFFFFF" fill-rule="evenodd" d="M20.7 28.2a11.3 11.3 0 1 0 22.6 0a11.3 11.3 0 1 0 -22.6 0ZM29.1 28.2a2.9 2.9 0 1 0 5.8 0a2.9 2.9 0 1 0 -5.8 0Z"/></svg>
